<svg xmlns="http://www.w3.org/2000/svg" width="60" height="60" viewBox="0 0 60 60">
  <g id="Group_30" data-name="Group 30" transform="translate(-770 -1273)">
    <path id="Vector" d="M52,9a4,4,0,0,0-4-4H47V8a2,2,0,0,1-2,2H43a2,2,0,0,0,2-2V2a2,2,0,0,0-4,0V5H36V8a2,2,0,0,1-2,2H32a2,2,0,0,0,2-2V2a2,2,0,0,0-4,0V5H24V8a2,2,0,0,1-2,2H20a2,2,0,0,0,2-2V2a2,2,0,0,0-4,0V5H13V8a2,2,0,0,1-2,2H9a2,2,0,0,0,2-2V2A2,2,0,0,0,7,2V5H4A4,4,0,0,0,0,9v6H52Z" transform="translate(770 1273)" fill="#fff"/>
    <path id="Vector-2" data-name="Vector" d="M11,0A11,11,0,1,0,22,11,11,11,0,0,0,11,0Zm0,13a1.987,1.987,0,0,1-.724-.14L6.625,15.781l-1.25-1.562L9.03,11.3A1.91,1.91,0,0,1,10,9.277V3h2V9.277A1.994,1.994,0,0,1,11,13Z" transform="translate(808 1311)" fill="#fff"/>
    <path id="Vector-3" data-name="Vector" d="M4,37H37a13,13,0,0,1,7-17H39V14h6v5.634a12.8,12.8,0,0,1,7-.272V0H0V33A4,4,0,0,0,4,37ZM39,3h6V9H39ZM28,3h6V9H28Zm0,11h6v6H28Zm0,11h6v6H28ZM17,3h6V9H17Zm0,11h6v6H17Zm0,11h6v6H17ZM6,3h6V9H6ZM6,14h6v6H6ZM6,25h6v6H6Z" transform="translate(770 1290)" fill="#fff"/>
  </g>
</svg>
