<svg xmlns="http://www.w3.org/2000/svg" width="60.001" height="60" viewBox="0 0 60.001 60">
  <g id="Group_29" data-name="Group 29" transform="translate(-382 -1273)">
    <path id="Vector" d="M9.317,18.75a2.5,2.5,0,0,1-1.775-.74L.725,11.135a2.5,2.5,0,0,1,3.55-3.52l4.92,4.963L19.36.862A2.5,2.5,0,1,1,23.137,4.14L11.2,17.89a2.507,2.507,0,0,1-1.805.86Z" transform="translate(394.5 1288)" fill="#fff"/>
    <path id="Vector-2" data-name="Vector" d="M19.951,22.451a2.493,2.493,0,0,1-1.768-.733L.733,4.268A2.5,2.5,0,0,1,4.268.733l17.45,17.45a2.5,2.5,0,0,1-1.768,4.268Z" transform="translate(419.549 1310.549)" fill="#fff"/>
    <path id="Vector-3" data-name="Vector" d="M24.375,48.75A24.375,24.375,0,1,1,48.75,24.375,24.4,24.4,0,0,1,24.375,48.75Zm0-43.75A19.375,19.375,0,1,0,43.75,24.375,19.4,19.4,0,0,0,24.375,5Z" transform="translate(382 1273)" fill="#fff"/>
  </g>
</svg>
