<svg xmlns="http://www.w3.org/2000/svg" width="60.002" height="60" viewBox="0 0 60.002 60">
  <g id="Group_31" data-name="Group 31" transform="translate(-1158 -1273)">
    <g id="Group">
      <g id="Group-2" data-name="Group">
        <path id="Vector" d="M0,0V16H16Z" transform="translate(1202.002 1273)" fill="#fff"/>
      </g>
    </g>
    <g id="Group-3" data-name="Group">
      <g id="Group-4" data-name="Group">
        <path id="Vector-2" data-name="Vector" d="M19.946,29.516,16.882,17.224a10,10,0,1,0-13.76,0L.059,29.516a2,2,0,0,0,2.836,2.276L10,28.236l7.1,3.556A2.084,2.084,0,0,0,18,32a2,2,0,0,0,1.944-2.484ZM10,16a6,6,0,1,1,6-6A6.007,6.007,0,0,1,10,16Z" transform="translate(1158 1301)" fill="#fff"/>
      </g>
    </g>
    <g id="Group-5" data-name="Group">
      <g id="Group-6" data-name="Group">
        <path id="Vector-3" data-name="Vector" d="M32,20a4.007,4.007,0,0,1-4-4V0H4A4.007,4.007,0,0,0,0,4V24.2A13.974,13.974,0,0,1,12,38a13.806,13.806,0,0,1-2.736,8.284L11.688,56H44a4,4,0,0,0,4-4V20ZM10,16a2,2,0,0,1,0-4H22a2,2,0,0,1,0,4ZM38,40H18a2,2,0,1,1,0-4H38a2,2,0,1,1,0,4Zm0-12H14a2,2,0,1,1,0-4H38a2,2,0,1,1,0,4Z" transform="translate(1170.002 1273)" fill="#fff"/>
      </g>
    </g>
  </g>
</svg>
